<svg width="30" height="28" viewBox="0 0 30 28" fill="none" xmlns="http://www.w3.org/2000/svg">
<path d="M8.28386 0.239592C7.72058 0.368166 7.18792 0.674295 6.73485 1.13349C6.40423 1.46411 6.18381 1.80085 5.394 3.17231C4.8797 4.07845 4.41439 4.94786 4.36541 5.10093C4.23683 5.52339 4.29193 6.08054 4.51847 6.53361L4.70215 6.90097L3.99193 8.13773C3.6062 8.81122 3.22048 9.52144 3.14701 9.71124C2.77353 10.6235 2.87149 11.7745 3.40416 12.6562C3.76539 13.2501 4.2001 13.5807 5.95728 14.5971L7.58589 15.5461L7.47568 15.7297C7.04098 16.4522 6.92465 16.8808 7.02873 17.4318C7.06547 17.64 7.1818 17.94 7.27976 18.0992L7.45731 18.3869L6.64913 19.8013L5.84707 21.2156H4.80011H3.74702L3.71029 21.0564C3.6858 20.9646 3.496 20.7197 3.28783 20.5115C2.76129 19.9911 2.56536 19.9298 1.34085 19.9298H0.3796L0.1898 20.1074L0 20.2849V23.8422V27.3994L0.177555 27.5953L0.35511 27.7974H1.38983C2.40005 27.7974 2.42454 27.7912 2.75516 27.6259C3.18375 27.4055 3.39804 27.2035 3.62457 26.7994L3.80825 26.481H5.44298C6.86342 26.481 7.14506 26.4626 7.54303 26.3647C8.38182 26.1504 9.15327 25.6483 9.63695 25.0055C9.79002 24.8034 10.3717 23.8299 10.9411 22.8381L11.9697 21.0319H12.3064C13.0656 21.0319 13.5677 20.7441 14.0207 20.0584C14.186 19.8074 14.333 19.5808 14.3452 19.5441C14.3513 19.5135 15.3555 20.0645 16.5616 20.7686C19.5188 22.4952 19.2127 22.3483 19.8678 22.3483C20.327 22.3483 20.4617 22.3238 20.6943 22.2013C21.0801 21.9993 21.4046 21.6748 21.6556 21.2278C21.7719 21.0197 21.8821 20.8482 21.9005 20.8482C21.9189 20.8482 22.0781 20.9339 22.2434 21.038C22.6964 21.3135 22.9781 21.3993 23.4801 21.3993C23.8475 21.3993 23.9822 21.3686 24.2944 21.2095C24.5026 21.1054 24.7597 20.9156 24.87 20.787C25.1393 20.4747 26.8659 17.4441 26.9516 17.1379C26.9822 17.0094 27.0006 16.691 26.9884 16.44C26.9578 15.9012 26.8108 15.5767 26.4435 15.2093C26.3088 15.0746 26.2047 14.9522 26.2169 14.9399C26.2292 14.9277 26.9333 14.6705 27.7843 14.3705C28.6537 14.0583 29.419 13.7521 29.5354 13.6603C30.0374 13.2807 30.1537 12.4297 29.7803 11.897C29.5905 11.6215 29.5231 11.5786 21.3066 6.79688C20.076 6.08666 17.1188 4.36009 14.7371 2.97639C12.3493 1.58656 10.2431 0.392656 10.0533 0.33143C9.5941 0.172243 8.77367 0.129385 8.28386 0.239592ZM9.61859 1.57432C9.94921 1.68452 28.6598 12.6011 28.6109 12.6501C28.5558 12.6991 24.7597 14.0522 24.674 14.0522C24.625 14.0522 23.7434 13.544 17.0698 9.65613C14.5228 8.17447 14.1677 8.00916 13.6534 8.07038C13.5003 8.08875 12.8207 8.29692 12.1533 8.5357C11.4799 8.77448 10.8737 8.9704 10.8064 8.9704C10.69 8.9704 9.67981 8.401 6.77771 6.70505C6.26341 6.40504 5.79197 6.09279 5.73074 6.00707C5.49808 5.70094 5.55319 5.54788 6.49607 3.89478C6.97975 3.04374 7.46956 2.24168 7.57976 2.1131C7.68997 1.98453 7.94712 1.79473 8.15529 1.69065C8.46754 1.53146 8.60224 1.50084 8.96959 1.50084C9.2145 1.50084 9.50226 1.53146 9.61859 1.57432ZM7.85528 8.85407C10.3288 10.299 10.2859 10.2806 10.9227 10.2378C11.3329 10.2133 11.6145 10.1337 12.5391 9.80308C13.1574 9.58266 13.7268 9.39898 13.8126 9.39898C13.8983 9.39898 14.0513 9.44184 14.1615 9.50307C14.4616 9.65613 23.5965 14.9767 23.6454 15.0195C23.6638 15.044 22.9352 16.3726 22.0168 17.9706C20.4984 20.6339 20.3331 20.8911 20.1249 20.989C19.9413 21.0809 19.8617 21.0931 19.7147 21.0441C19.6168 21.0074 18.3433 20.2849 16.8861 19.4339C15.4289 18.589 13.2309 17.3094 12.0003 16.593C10.7696 15.8767 8.69408 14.6644 7.37772 13.8991C6.06748 13.1338 4.89807 12.4235 4.78786 12.3195C4.31642 11.8664 4.09601 10.9664 4.30418 10.348C4.46949 9.8643 5.75523 7.67241 5.85319 7.70915C5.90217 7.72752 6.8022 8.24182 7.85528 8.85407ZM25.1883 15.9134C25.372 16.0297 25.5618 16.1889 25.6169 16.2624C25.819 16.5502 25.7516 16.7216 24.8148 18.3625C23.8965 19.9788 23.7863 20.1135 23.4373 20.1135C23.2842 20.1135 22.574 19.74 22.5801 19.6666C22.5801 19.6115 24.8148 15.7053 24.8455 15.7053C24.8577 15.7053 25.0108 15.7971 25.1883 15.9134ZM10.439 17.2053C11.1798 17.6339 12.1105 18.1788 12.5084 18.4114L13.2309 18.8339L13.0656 19.1217C12.7289 19.7094 12.4472 19.8564 12.0554 19.6482C11.3452 19.287 8.57775 17.6339 8.46754 17.5053C8.26549 17.2788 8.28386 16.9481 8.51652 16.5318L8.70632 16.1951L8.90224 16.3114C9.00633 16.3726 9.69818 16.7767 10.439 17.2053ZM9.73491 19.838C10.2921 20.1625 10.7574 20.438 10.7696 20.4503C10.7819 20.4625 10.3411 21.2646 9.79002 22.2319C8.66346 24.2034 8.3757 24.583 7.75732 24.8891C7.21241 25.1524 6.88179 25.1953 5.32053 25.1953H3.91846V23.8789V22.5626H5.13073C6.19606 22.5626 6.36137 22.5503 6.52056 22.4462C6.66138 22.3666 6.94302 21.9258 7.62262 20.738C8.36346 19.4339 8.54713 19.1523 8.62673 19.1951C8.68183 19.2196 9.17776 19.5135 9.73491 19.838ZM2.39393 21.4482L2.57149 21.6442V23.8728V26.1014L2.38169 26.2912C2.20413 26.4688 2.1674 26.481 1.73882 26.481H1.28574V23.8422V21.2033L1.75106 21.2278C2.18576 21.2462 2.22862 21.2646 2.39393 21.4482Z" fill="#E4F2F6"/>
</svg>
