<svg width="24" height="24" viewBox="0 0 24 24" fill="none" xmlns="http://www.w3.org/2000/svg">
<path d="M18.0967 0.42712C18.0123 0.534922 17.9982 0.619289 17.9982 1.05987V1.57076H9.10224H0.201543L0.103115 1.67856L0 1.78636V11.9807V22.1797L0.107802 22.2781L0.215604 22.3812H9.10692H17.9982V22.8921C17.9982 23.3327 18.0123 23.4171 18.0967 23.5249C18.1529 23.5999 18.2373 23.6467 18.3123 23.6467C18.4295 23.6467 23.4446 22.475 23.7539 22.3765C23.8336 22.3484 23.9274 22.2875 23.9508 22.2406C24.0164 22.1188 24.0164 1.83323 23.9508 1.71137C23.9274 1.6645 23.8336 1.60357 23.7539 1.57545C23.4446 1.47702 18.4295 0.305258 18.3123 0.305258C18.2373 0.305258 18.1529 0.352127 18.0967 0.42712ZM20.9979 1.59419C22.1978 1.86604 23.2149 2.1004 23.2618 2.11446C23.3368 2.13789 23.3415 2.64878 23.3415 11.976C23.3415 21.3032 23.3368 21.8141 23.2618 21.8375C23.2149 21.8516 22.1978 22.0859 20.9979 22.3578C19.7981 22.6296 18.781 22.8687 18.7388 22.8781C18.6591 22.9015 18.6544 22.3625 18.6544 11.976C18.6544 1.58951 18.6591 1.0505 18.7388 1.07393C18.781 1.08331 19.7981 1.32235 20.9979 1.59419ZM7.35866 11.976V21.725H4.00742H0.656186V11.976V2.22694H4.00742H7.35866V11.976ZM15.9828 11.976V21.725H11.9988H8.01484V11.976V2.22694H11.9988H15.9828V11.976ZM17.9982 11.976V21.725H17.3186H16.639V11.976V2.22694H17.3186H17.9982V11.976Z" fill="#E4F2F6"/>
<path d="M19.4744 3.78304C19.4228 3.81117 19.3666 3.85804 19.3478 3.88616C19.3291 3.91428 19.3104 4.28925 19.3104 4.71577C19.3104 5.79847 19.1229 5.69536 21.1195 5.69536H22.7178L22.8209 5.58287C22.9287 5.47038 22.9287 5.45632 22.8959 4.70171C22.8678 4.02208 22.8538 3.92834 22.7647 3.82992C22.671 3.7268 22.6663 3.7268 21.1195 3.7268C20.0509 3.73149 19.54 3.74555 19.4744 3.78304ZM22.2632 4.71108V5.03917H21.1149H19.9665V4.71108V4.38299H21.1149H22.2632V4.71108Z" fill="#E4F2F6"/>
<path d="M19.3858 8.69974C19.1327 8.90128 19.3202 9.2575 19.6858 9.2575H19.8733V11.062V12.8665H19.6624C19.2312 12.8665 19.114 13.2696 19.4843 13.4665C19.5405 13.4993 19.7467 13.5227 19.9436 13.5227C20.2576 13.5227 20.3139 13.5086 20.4123 13.4055L20.5295 13.293V11.062V8.83098L20.4123 8.71849C20.3092 8.61068 20.2623 8.60131 19.9061 8.60131C19.578 8.60131 19.489 8.61537 19.3858 8.69974Z" fill="#E4F2F6"/>
<path d="M19.3195 15.8335C19.1883 15.9741 19.1883 16.1522 19.3242 16.2787C19.432 16.3818 19.4555 16.3818 21.0162 16.3818H22.5958L22.7083 16.2647C22.7739 16.2037 22.8254 16.1053 22.8254 16.0537C22.8254 16.0022 22.7739 15.9038 22.7083 15.8428L22.5958 15.7256H21.0069H19.418L19.3195 15.8335Z" fill="#E4F2F6"/>
<path d="M19.3195 17.1457C19.1883 17.2863 19.1883 17.4644 19.3242 17.591C19.432 17.6941 19.4555 17.6941 21.0162 17.6941H22.5958L22.7083 17.5769C22.7739 17.516 22.8254 17.4176 22.8254 17.366C22.8254 17.3144 22.7739 17.216 22.7083 17.1551L22.5958 17.0379H21.0069H19.418L19.3195 17.1457Z" fill="#E4F2F6"/>
<path d="M19.3195 18.5051C19.1883 18.6457 19.1883 18.8238 19.3242 18.9504C19.432 19.0535 19.4555 19.0535 21.0162 19.0535H22.5958L22.7083 18.9363C22.7739 18.8754 22.8254 18.7769 22.8254 18.7254C22.8254 18.6691 22.7739 18.5754 22.7083 18.5145L22.5958 18.3973H21.0069H19.418L19.3195 18.5051Z" fill="#E4F2F6"/>
<path d="M19.3336 19.8267C19.1883 19.9673 19.1837 20.1314 19.3243 20.2626C19.4321 20.3657 19.4555 20.3657 21.0163 20.3657H22.5958L22.7083 20.2485C22.7739 20.1876 22.8255 20.0892 22.8255 20.0376C22.8255 19.9861 22.7739 19.8876 22.7083 19.8267L22.5958 19.7095H21.021H19.4461L19.3336 19.8267Z" fill="#E4F2F6"/>
<path d="M1.79061 3.60023C1.69219 3.70334 1.6875 3.74553 1.6875 4.71574C1.6875 5.7094 1.6875 5.72814 1.7953 5.82657C1.9031 5.92969 1.91248 5.92969 4.01227 5.92969H6.12613L6.22456 5.82189C6.32299 5.71877 6.32767 5.67659 6.32767 4.70637C6.32767 3.71272 6.32767 3.69397 6.21987 3.59554C6.11207 3.49243 6.10269 3.49243 4.0029 3.49243H1.88904L1.79061 3.60023ZM5.67149 4.71106V5.2735H4.00759H2.34369V4.71106V4.14861H4.00759H5.67149V4.71106Z" fill="#E4F2F6"/>
<path d="M1.47655 8.71849L1.35938 8.83098V11.062V13.293L1.47655 13.4055C1.57498 13.5086 1.63122 13.5227 1.94526 13.5227C2.14211 13.5227 2.34834 13.4993 2.40459 13.4665C2.77486 13.2696 2.65769 12.8665 2.22648 12.8665H2.01556V11.062V9.2575H2.20304C2.56863 9.2575 2.75611 8.90128 2.50301 8.69974C2.3999 8.61537 2.31084 8.60131 1.98275 8.60131C1.62654 8.60131 1.57967 8.61068 1.47655 8.71849Z" fill="#E4F2F6"/>
<path d="M2.30586 15.8335C2.17462 15.9741 2.17462 16.1522 2.31054 16.2787C2.41835 16.3818 2.44178 16.3818 4.01194 16.3818H5.61022L5.70865 16.274C5.83989 16.1334 5.83989 15.9553 5.70396 15.8288C5.59616 15.7256 5.57273 15.7256 4.00257 15.7256H2.40429L2.30586 15.8335Z" fill="#E4F2F6"/>
<path d="M2.30586 17.1457C2.17462 17.2863 2.17462 17.4644 2.31054 17.591C2.41835 17.6941 2.44178 17.6941 4.01194 17.6941H5.61022L5.70865 17.5863C5.83989 17.4457 5.83989 17.2676 5.70396 17.141C5.59616 17.0379 5.57273 17.0379 4.00257 17.0379H2.40429L2.30586 17.1457Z" fill="#E4F2F6"/>
<path d="M2.30586 18.5051C2.17462 18.6457 2.17462 18.8238 2.31054 18.9504C2.41835 19.0535 2.44178 19.0535 4.01194 19.0535H5.61022L5.70865 18.9457C5.83989 18.8051 5.83989 18.6269 5.70396 18.5004C5.59616 18.3973 5.57273 18.3973 4.00257 18.3973H2.40429L2.30586 18.5051Z" fill="#E4F2F6"/>
<path d="M2.31998 19.8267C2.17468 19.9673 2.16999 20.1314 2.3106 20.2626C2.4184 20.3657 2.44184 20.3657 4.012 20.3657H5.61028L5.70871 20.2579C5.84463 20.1173 5.83994 19.9673 5.69465 19.8267L5.58216 19.7095H4.00731H2.43246L2.31998 19.8267Z" fill="#E4F2F6"/>
<path d="M9.77245 3.6096C9.65527 3.72209 9.65527 3.72209 9.65527 4.71106C9.65527 5.70002 9.65527 5.70002 9.77245 5.81251L9.88494 5.92969H11.9988H14.1127L14.2251 5.81251C14.3423 5.70002 14.3423 5.70002 14.3423 4.71106C14.3423 3.72209 14.3423 3.72209 14.2251 3.6096L14.1127 3.49243H11.9988H9.88494L9.77245 3.6096ZM13.6861 4.71106V5.2735H11.9988H10.3115V4.71106V4.14861H11.9988H13.6861V4.71106Z" fill="#E4F2F6"/>
<path d="M8.8162 8.72317C8.71777 8.84504 8.71777 8.89191 8.71777 11.0808C8.71777 12.3088 8.73652 13.3352 8.75527 13.3633C8.82558 13.4711 9.00368 13.5227 9.32709 13.5227C9.66456 13.5227 9.81923 13.4758 9.92234 13.3399C10.0067 13.2321 9.99734 13.129 9.88485 12.9884C9.80517 12.89 9.74892 12.8665 9.58019 12.8665H9.37396V11.062V9.2575H9.56144C9.70205 9.2575 9.78173 9.22469 9.8661 9.14032C10.0161 8.99502 10.0161 8.86378 9.8661 8.71849C9.76298 8.61068 9.71611 8.60131 9.33178 8.60131C8.93338 8.60131 8.90526 8.606 8.8162 8.72317Z" fill="#E4F2F6"/>
<path d="M10.3205 15.8335C10.1893 15.9741 10.1893 16.1522 10.3252 16.2787C10.433 16.3818 10.4564 16.3818 12.0032 16.3818H13.578L13.6764 16.274C13.8077 16.1334 13.8077 15.9553 13.6717 15.8288C13.5639 15.7256 13.5405 15.7256 11.9938 15.7256H10.4189L10.3205 15.8335Z" fill="#E4F2F6"/>
<path d="M10.3205 17.1457C10.1893 17.2863 10.1893 17.4644 10.3252 17.591C10.433 17.6941 10.4564 17.6941 12.0032 17.6941H13.578L13.6764 17.5863C13.8077 17.4457 13.8077 17.2676 13.6717 17.141C13.5639 17.0379 13.5405 17.0379 11.9938 17.0379H10.4189L10.3205 17.1457Z" fill="#E4F2F6"/>
<path d="M10.3205 18.5051C10.1893 18.6457 10.1893 18.8238 10.3252 18.9504C10.433 19.0535 10.4564 19.0535 12.0032 19.0535H13.578L13.6764 18.9457C13.8077 18.8051 13.8077 18.6269 13.6717 18.5004C13.5639 18.3973 13.5405 18.3973 11.9938 18.3973H10.4189L10.3205 18.5051Z" fill="#E4F2F6"/>
<path d="M10.3346 19.8267C10.1893 19.9673 10.1846 20.1314 10.3253 20.2626C10.4331 20.3657 10.4565 20.3657 12.0032 20.3657H13.5781L13.6765 20.2579C13.8124 20.1173 13.8077 19.9673 13.6624 19.8267L13.5499 19.7095H11.9985H10.4471L10.3346 19.8267Z" fill="#E4F2F6"/>
</svg>
