<svg width="24" height="24" viewBox="0 0 24 24" fill="none" xmlns="http://www.w3.org/2000/svg">
<path d="M12.3495 0.208434C12.2377 0.325299 12.2021 0.406597 12.2021 0.559031C12.2021 0.731789 12.2428 0.808005 12.446 1.03666C13.2133 1.88012 13.5791 2.82521 13.5842 3.94814C13.5842 5.05074 13.2184 5.99583 12.4714 6.83929C12.192 7.15432 12.1717 7.4033 12.4003 7.63703C12.6086 7.84535 12.8475 7.84027 13.0913 7.62178C13.6503 7.134 14.2346 6.0822 14.4683 5.1422C14.6157 4.56295 14.6055 3.29775 14.448 2.67786C14.2397 1.83439 13.6198 0.741951 13.071 0.249083C12.8017 0.00518894 12.568 -0.0100546 12.3495 0.208434Z" fill="#E4F2F6"/>
<path d="M0.913916 0.414658L0.746239 0.56201L0.730996 11.7405L0.720834 22.9189L0.497264 22.9494C0.0247204 23.0205 -0.1582 23.4829 0.156829 23.798L0.304182 23.9453H12.0009H23.6977L23.845 23.798C24.0483 23.5896 24.0533 23.3102 23.8501 23.1171C23.7739 23.0409 23.6824 22.9799 23.6468 22.9799C23.6011 22.9799 23.5859 22.2177 23.5859 19.7381C23.5859 16.1763 23.5859 16.161 23.2708 15.5157C23.1591 15.282 22.9812 15.0534 22.6916 14.7587L22.28 14.342H22.7983C23.7231 14.342 23.7891 14.2759 23.7891 13.3512C23.7891 12.9955 23.7637 12.6652 23.7383 12.6093C23.6519 12.4569 23.3928 12.3451 23.1997 12.3807C22.9355 12.4315 22.8237 12.6195 22.8237 13.0057V13.3309L22.1022 13.3156L21.3807 13.3004L20.8675 12.1571C20.2882 10.8614 20.0901 10.5464 19.5819 10.0637C19.1348 9.64197 18.6673 9.36759 18.0474 9.1491L17.5647 8.98142L14.1248 8.96618C10.7967 8.95093 10.6646 8.95602 10.2378 9.05764C9.3689 9.26088 8.46446 9.82489 7.97667 10.4651C7.65656 10.8818 7.54986 11.085 7.02142 12.2689L6.54888 13.3258H5.84768H5.14141V13.0463C5.14141 12.711 5.04995 12.5077 4.86195 12.4213C4.65362 12.3248 4.4961 12.3502 4.31827 12.5077L4.15059 12.6551L4.13535 13.2648C4.10486 14.2302 4.21156 14.342 5.14141 14.342H5.71049L5.45135 14.5452C5.00422 14.8958 4.64346 15.4598 4.44529 16.095C4.35891 16.3795 4.35383 16.6387 4.35383 19.6619V22.9291H3.04799H1.73706V15.7901V8.65115H4.59773H7.4584L7.69213 8.5038C7.84456 8.40726 7.95635 8.28023 8.03256 8.13287C8.13927 7.90931 8.13927 7.87882 8.13927 4.46939C8.13927 1.65445 8.12402 0.993904 8.06813 0.861795C7.98175 0.663631 7.70737 0.394333 7.51429 0.323196C7.41775 0.287628 6.32023 0.267303 4.22681 0.267303H1.07651L0.913916 0.414658ZM7.14337 1.67477C7.15861 1.88818 7.17385 3.32614 7.17385 4.87588V7.68574H4.45546H1.73706V4.48463V1.28353H4.42497H7.1078L7.14337 1.67477ZM17.5647 10.0434C18.2456 10.2466 18.957 10.7446 19.3228 11.2781C19.4397 11.4407 20.2323 13.1327 20.522 13.8186C20.5423 13.8695 19.2161 13.8847 13.9876 13.8847C10.38 13.8847 7.42791 13.8695 7.42791 13.8491C7.42791 13.7882 8.39332 11.6439 8.51019 11.4458C8.82014 10.9173 9.41971 10.4143 10.0193 10.1755C10.6087 9.93667 10.8119 9.92651 14.135 9.94175C16.9601 9.95191 17.2904 9.96208 17.5647 10.0434ZM9.89225 14.9619C10.2886 16.6641 10.3496 16.8317 10.7052 17.2281C10.9593 17.5126 11.3048 17.7108 11.7215 17.8226C12.1381 17.9293 15.7 17.9344 16.1014 17.8276C16.513 17.7159 16.8127 17.5431 17.077 17.2636C17.4276 16.8927 17.5292 16.6641 17.7629 15.7139L17.9712 14.8755L19.4956 14.8806C21.1927 14.8806 21.2333 14.8908 21.7465 15.2414C22.0666 15.4598 22.341 15.8155 22.4731 16.1966C22.5595 16.4507 22.5696 16.6234 22.5696 18.2036V19.9312H13.9571H5.34465V18.29C5.34465 17.3907 5.37006 16.5574 5.39546 16.4354C5.57838 15.658 6.23385 15.033 7.0011 14.906C7.13829 14.8806 7.83948 14.8603 8.55592 14.8552L9.86685 14.8501L9.89225 14.9619ZM16.9296 14.8704C16.9296 14.8857 16.8585 15.1855 16.7772 15.5462C16.5841 16.3541 16.4621 16.5726 16.1065 16.7505L15.8422 16.8826H13.9216C12.2956 16.8826 11.9704 16.8724 11.8078 16.8013C11.6097 16.72 11.3658 16.5167 11.2845 16.3592C11.2235 16.2474 10.9339 15.0889 10.9339 14.9517C10.9339 14.8501 10.9593 14.8501 13.9317 14.8501C15.5831 14.8501 16.9296 14.8603 16.9296 14.8704ZM7.92586 21.8519C7.9157 22.5277 7.89029 22.7817 7.83948 22.8427C7.77851 22.9189 7.63115 22.9291 6.6505 22.9291C5.68001 22.9291 5.51741 22.9189 5.43611 22.8427C5.35481 22.7716 5.34465 22.67 5.34465 21.8519V20.9475H6.64542H7.9411L7.92586 21.8519ZM19.0129 21.857C19.0129 22.36 19.0281 22.8021 19.0433 22.8478C19.0738 22.924 18.6064 22.9291 13.9876 22.9291H8.90143V21.9383V20.9475H13.9571H19.0129V21.857ZM22.5696 21.8773C22.5696 22.5328 22.5493 22.8275 22.5087 22.8681C22.4629 22.9138 22.1276 22.9291 21.3197 22.9291C20.3594 22.9291 20.1764 22.9189 20.1104 22.8478C20.0443 22.7817 20.0291 22.6191 20.0291 21.857V20.9475H21.2994H22.5696V21.8773Z" fill="#E4F2F6"/>
<path d="M3.18063 2.29674C2.90625 2.40345 2.90625 2.42377 2.90625 4.47146V6.3718L3.0536 6.51915C3.16539 6.62585 3.25177 6.6665 3.38896 6.6665C3.52615 6.6665 3.61253 6.62585 3.72431 6.51915C3.87166 6.3718 3.87166 6.36164 3.87166 5.78747V5.20822L4.38486 5.17774C4.97935 5.14725 5.32994 5.00498 5.60432 4.70011C6.00065 4.24281 6.09719 3.57718 5.83805 3.07923C5.6653 2.7388 5.29946 2.41869 4.97426 2.32215C4.68972 2.23577 3.36863 2.22053 3.18063 2.29674ZM4.8574 3.41967C5.02508 3.61275 5.02508 3.82108 4.86756 4.00908C4.7507 4.14119 4.71005 4.15135 4.30864 4.17168L3.87166 4.18692V3.72454V3.26216H4.29848C4.71513 3.26216 4.73037 3.26724 4.8574 3.41967Z" fill="#E4F2F6"/>
<path d="M7.35351 15.9494C7.008 16.0663 6.56594 16.5084 6.44907 16.8488C6.33729 17.1689 6.33729 17.5551 6.44907 17.8752C6.56594 18.2258 7.008 18.6628 7.37384 18.7847C7.90227 18.9575 8.55266 18.7999 8.93882 18.3935C9.46218 17.8447 9.47234 16.9453 8.95915 16.3559C8.59839 15.9494 7.88703 15.7665 7.35351 15.9494ZM8.19698 17.0266C8.30368 17.1384 8.34433 17.2248 8.34433 17.362C8.34433 17.7837 7.81081 18.0073 7.51103 17.7126C7.31286 17.5093 7.32303 17.1892 7.53643 17.0114C7.75492 16.8285 7.99881 16.8336 8.19698 17.0266Z" fill="#E4F2F6"/>
<path d="M19.618 15.939C19.3284 16.0305 18.8965 16.4115 18.7491 16.6961C18.678 16.8333 18.6323 17.0365 18.617 17.2906C18.5967 17.631 18.6119 17.7174 18.7237 17.9613C19.3894 19.4196 21.5641 18.9826 21.5742 17.3871C21.5742 16.9755 21.498 16.7418 21.249 16.4268C20.8832 15.9644 20.182 15.7561 19.618 15.939ZM20.4107 16.9959C20.5021 17.0721 20.5529 17.1788 20.5733 17.3211C20.5987 17.5091 20.5834 17.5497 20.4462 17.692C20.1718 17.9664 19.745 17.88 19.6231 17.5192C19.4706 17.0518 20.0347 16.6707 20.4107 16.9959Z" fill="#E4F2F6"/>
<path d="M11.0788 1.25588C10.9162 1.34734 10.8044 1.59123 10.8502 1.76907C10.8705 1.84528 10.9873 2.02312 11.1093 2.16031C11.4192 2.51091 11.6326 2.96313 11.7292 3.46108C11.8003 3.82184 11.8054 3.94887 11.7546 4.29946C11.6885 4.75168 11.4497 5.31569 11.2008 5.60531C10.9467 5.89494 10.8806 6.02196 10.8806 6.19472C10.8806 6.42845 11.0585 6.61645 11.3176 6.65202C11.5158 6.67743 11.5513 6.66218 11.7648 6.46402C12.3796 5.89494 12.7657 4.91428 12.7657 3.92854C12.7657 3.0241 12.4863 2.25177 11.9121 1.55566C11.6072 1.18982 11.3633 1.10344 11.0788 1.25588Z" fill="#E4F2F6"/>
<path d="M9.77183 2.36747C9.62448 2.44877 9.51778 2.63169 9.5127 2.80953C9.5127 2.88067 9.59907 3.05343 9.71594 3.21094C10.0564 3.66824 10.0665 4.14079 9.73626 4.61333C9.48221 4.98425 9.47713 5.19766 9.70578 5.4009C10.0005 5.66512 10.3308 5.55334 10.6255 5.09604C11.1793 4.23733 11.0675 3.10424 10.3714 2.47926C10.158 2.2811 9.98524 2.25061 9.77183 2.36747Z" fill="#E4F2F6"/>
</svg>
