<svg width="24" height="28" viewBox="0 0 24 28" fill="none" xmlns="http://www.w3.org/2000/svg">
<path d="M1.2574 0.0612354C1.13713 0.0995045 0.978588 0.159641 0.907517 0.19791C0.661503 0.334585 0.289749 0.717274 0.147608 0.996088L0 1.26944V12.9414V24.6134L0.147608 24.8922C0.317084 25.2148 0.770843 25.6467 1.04419 25.7451L1.23007 25.8107V26.3355C1.23007 26.9861 1.32847 27.2922 1.61822 27.5874C1.92984 27.899 2.20866 27.9756 3.02323 27.9756C3.81048 27.9756 4.04556 27.9209 4.34624 27.6585C4.69613 27.3633 4.79453 27.1118 4.82733 26.4612L4.85467 25.8981H7.25467C9.85695 25.8981 9.88428 25.8927 10.021 25.5975C10.1303 25.3569 10.0975 25.1874 9.90068 24.9906L9.71481 24.8047H5.64191H1.57449L1.38861 24.679C1.29021 24.6134 1.1754 24.4931 1.13713 24.4221C1.08246 24.3127 1.06606 21.9072 1.06606 12.9414C1.06606 1.78333 1.06606 1.59199 1.1754 1.42251C1.39954 1.05076 0.519362 1.07809 12.0109 1.07809C22.2342 1.07809 22.42 1.07809 22.5895 1.18743C22.9613 1.41158 22.9339 0.432991 22.9339 12.9524C22.9339 24.094 22.9339 24.2908 22.8246 24.4603C22.6059 24.8211 22.8137 24.8047 18.3144 24.8047C14.6023 24.8047 14.2196 24.8157 14.0774 24.8977C13.8205 25.0453 13.744 25.3186 13.8697 25.5975C14.0064 25.8981 14.0282 25.8981 16.6907 25.8981H19.1453L19.1727 26.4558C19.2055 27.1118 19.3039 27.3633 19.6538 27.6585C19.9544 27.9209 20.1895 27.9756 20.9768 27.9756C21.7913 27.9756 22.0702 27.899 22.3818 27.5874C22.6715 27.2922 22.7699 26.9861 22.7699 26.3355V25.8107L22.9722 25.7396C23.2456 25.6412 23.6775 25.2202 23.8524 24.8867L24 24.6134V12.9414V1.26944L23.8524 0.996088C23.6775 0.657137 23.2893 0.29085 22.9449 0.132307L22.6879 0.0120335L12.082 0.00110054C3.66287 -0.00436783 1.43235 0.006567 1.2574 0.0612354ZM3.74487 26.2863C3.74487 26.8767 3.73941 26.8822 3.0451 26.8822C2.65695 26.8822 2.4328 26.8603 2.38907 26.8166C2.3508 26.7783 2.32346 26.5815 2.32346 26.3246V25.8981H3.03417H3.74487V26.2863ZM21.6765 26.3246C21.6765 26.5815 21.6492 26.7783 21.6109 26.8166C21.5672 26.8603 21.3431 26.8822 20.9549 26.8822C20.2606 26.8822 20.2551 26.8767 20.2551 26.2863V25.8981H20.9658H21.6765V26.3246Z" fill="#E4F2F6"/>
<path d="M2.4544 2.22619C2.38879 2.25352 2.29585 2.33006 2.24665 2.40113C2.16465 2.51047 2.15918 3.46172 2.15918 12.9578V23.3943L2.31772 23.5528L2.47626 23.7114H6.75143C11.3874 23.7114 11.2453 23.7223 11.3874 23.4107C11.4366 23.3014 11.453 20.8303 11.453 12.936C11.453 1.69589 11.4749 2.37926 11.1523 2.23712C10.9829 2.16058 2.64574 2.14965 2.4544 2.22619ZM10.3596 12.9414V22.618H6.8061H3.25257V18.4959V14.3738L4.25303 14.3519C5.24255 14.3355 5.25895 14.3355 5.57604 14.1715C6.161 13.8708 6.46169 13.3187 6.41248 12.6517C6.37968 12.2471 6.23754 11.9519 5.94779 11.6786C5.5487 11.2959 5.47216 11.274 4.3077 11.2576L3.25257 11.2358V7.25033V3.26491H6.8061H10.3596V12.9414ZM5.19335 12.4768C5.34096 12.6244 5.37376 12.9086 5.25895 13.0563C5.11681 13.2421 4.95827 13.2695 4.10542 13.2695H3.25257V12.8048V12.3401H4.15462C5.04574 12.3401 5.06214 12.3401 5.19335 12.4768Z" fill="#E4F2F6"/>
<path d="M4.74486 4.54961C4.56992 4.72455 4.55351 4.76829 4.58085 4.9487C4.60272 5.07991 4.67379 5.20565 4.78313 5.29858L4.94714 5.45166H6.83324H8.71935L8.89429 5.29312C9.0419 5.16191 9.0747 5.09631 9.0747 4.90496C9.0747 4.71362 9.0419 4.64802 8.89429 4.51681L8.71935 4.35827H6.82777H4.9362L4.74486 4.54961Z" fill="#E4F2F6"/>
<path d="M4.94804 6.44111C4.7403 6.52858 4.62549 6.65432 4.58722 6.84566C4.54895 7.04794 4.66923 7.33222 4.83324 7.4197C4.90431 7.4525 5.64781 7.47437 6.86148 7.47437H8.78039L8.9116 7.34316C9.10841 7.14635 9.14121 6.94407 9.01547 6.71446C8.9444 6.58325 8.84599 6.49578 8.72025 6.45204C8.47971 6.37004 5.15032 6.3591 4.94804 6.44111Z" fill="#E4F2F6"/>
<path d="M4.80553 18.3429C4.52125 18.567 4.50485 18.9388 4.7618 19.1793L4.90394 19.3105H6.83378H8.76362L8.90029 19.1848C9.07524 19.0208 9.12444 18.8295 9.0479 18.5944C8.9331 18.25 8.88389 18.2445 6.79551 18.2445C5.10075 18.2445 4.90941 18.2554 4.80553 18.3429Z" fill="#E4F2F6"/>
<path d="M4.94738 20.3055C4.65763 20.4148 4.50456 20.7592 4.61936 21.038C4.75057 21.3497 4.81617 21.3606 6.82802 21.3606C8.07995 21.3606 8.70319 21.3387 8.79613 21.3005C8.97654 21.2185 9.11868 20.9123 9.07494 20.71C9.05854 20.6226 8.982 20.4968 8.90547 20.4257L8.76332 20.2945L6.89909 20.2836C5.8713 20.2781 4.99112 20.2891 4.94738 20.3055Z" fill="#E4F2F6"/>
<path d="M12.8257 2.24805C12.5359 2.41206 12.5523 1.80523 12.5469 12.925C12.5469 20.8303 12.5633 23.3014 12.6125 23.4107C12.7546 23.7223 12.6125 23.7114 17.2485 23.7114H21.5236L21.6822 23.5528L21.8407 23.3943V12.9469V2.505L21.7095 2.35192L21.5783 2.19885L17.2649 2.18792C13.7551 2.17698 12.935 2.18792 12.8257 2.24805ZM20.7473 12.9414V22.618H17.1938H13.6403V18.4959V14.3738L14.6681 14.3519C15.8161 14.3246 15.9419 14.2918 16.3464 13.92C16.6635 13.6303 16.8275 13.2312 16.8275 12.7774C16.8275 12.1597 16.5378 11.6895 15.9801 11.4162L15.6466 11.2467H14.6407H13.6403V7.2558V3.26491H17.1938H20.7473V12.9414ZM15.6084 12.4768C15.7833 12.6626 15.7833 12.9524 15.6193 13.1219C15.5045 13.2367 15.4444 13.2421 14.5697 13.2585L13.6403 13.2749V12.8102V12.3401H14.5587C15.4717 12.3401 15.4826 12.3401 15.6084 12.4768Z" fill="#E4F2F6"/>
<path d="M15.2311 4.43489C14.8594 4.64263 14.8812 5.23307 15.2694 5.39161C15.3787 5.43534 15.9473 5.45175 17.2976 5.44081L19.1728 5.42441L19.304 5.27134C19.4954 5.04719 19.4844 4.73011 19.2767 4.51689L19.1181 4.35835H17.2375C15.7888 4.36382 15.335 4.38022 15.2311 4.43489Z" fill="#E4F2F6"/>
<path d="M15.3515 6.41924C15.2859 6.43017 15.1656 6.51765 15.0891 6.60512C14.8978 6.8402 14.9032 7.10808 15.111 7.31582L15.2695 7.47437H17.2103H19.1456L19.2932 7.33222C19.4025 7.22288 19.4353 7.12995 19.4353 6.96047C19.4353 6.67072 19.3205 6.50671 19.0636 6.43564C18.8722 6.38644 15.6194 6.37004 15.3515 6.41924Z" fill="#E4F2F6"/>
<path d="M15.1103 18.403C14.8916 18.6217 14.8916 18.8896 15.1103 19.1301L15.2688 19.3105L17.1167 19.3269C19.0575 19.3433 19.1941 19.3269 19.3527 19.0973C19.3964 19.0372 19.4347 18.8841 19.4347 18.7583C19.4347 18.567 19.4073 18.5014 19.2652 18.3866L19.0957 18.2444H17.1823H15.2688L15.1103 18.403Z" fill="#E4F2F6"/>
<path d="M15.3023 20.3219C14.9469 20.464 14.843 20.9342 15.1109 21.2021L15.2695 21.3606H17.1938H19.1182L19.2767 21.2021C19.4462 21.0326 19.49 20.7483 19.3806 20.5351C19.2439 20.2836 19.1182 20.2672 17.2102 20.2727C16.2262 20.2727 15.3624 20.2945 15.3023 20.3219Z" fill="#E4F2F6"/>
<path d="M11.677 24.8759C11.2068 25.1492 11.4036 25.8982 11.9449 25.8982C12.2346 25.8982 12.4916 25.6303 12.4916 25.3296C12.4916 24.9907 11.9777 24.7064 11.677 24.8759Z" fill="#E4F2F6"/>
</svg>
