<svg width="24" height="26" viewBox="0 0 24 26" fill="none" xmlns="http://www.w3.org/2000/svg">
<path d="M11.1581 0.632305C10.079 0.782307 9.05806 1.20327 8.16774 1.87102C6.88548 2.83876 6.02903 4.21779 5.72903 5.79037L5.64194 6.24037H3.78871H1.94032L1.89194 6.4194C1.8629 6.52102 1.50484 7.95811 1.08871 9.61295C0.377419 12.4823 0.33871 12.6468 0.33871 13.0968C0.33871 13.9146 0.546774 14.5678 0.93871 15.0323L1.1129 15.2307V19.9049V24.5791H0.556452H0V24.9662V25.3533H12H24V24.9662V24.5791H23.4435H22.8871V22.5468V20.5146H22.5242H22.1613V21.0468V21.5791H18.7742H15.3871V19.4984V17.4178L18.7645 17.4275L22.1371 17.442L22.1516 18.5888L22.1613 19.7404H22.5242H22.8871V17.4855V15.2307L23.0468 15.0323C23.4726 14.5 23.6129 14.0791 23.6468 13.2565L23.671 12.6517L22.9161 9.62747C22.4952 7.96295 22.1371 6.52102 22.1081 6.4194L22.0597 6.24037H20.2113H18.3581L18.271 5.79037C18.0242 4.4936 17.3806 3.2936 16.4371 2.37908C16.2387 2.19037 16.0548 2.03069 16.0355 2.03069C15.9919 2.03553 15.5806 2.52908 15.5806 2.57747C15.5806 2.59198 15.7258 2.74198 15.9 2.91134C16.6113 3.5936 17.2016 4.59037 17.4484 5.5436C17.6177 6.17747 17.6613 7.2565 17.5452 7.90973C17.279 9.43392 16.4081 10.7791 15.121 11.6404C14.9081 11.7855 14.7048 11.9017 14.671 11.9017C14.6226 11.9017 14.6129 11.5968 14.6226 10.4404L14.6371 8.98392L14.8935 8.89682C15.7113 8.62102 16.1129 7.90973 16.1129 6.74843C16.1129 4.81779 14.879 3.51618 13.6306 4.13069C13.1661 4.35811 12.779 4.88069 12.5468 5.58714C12.3823 6.10005 12.3387 7.0194 12.4548 7.51779C12.6145 8.20005 13.0597 8.73231 13.6016 8.89198L13.8871 8.97424V10.6291V12.2839L13.6113 12.3613C13.1129 12.5065 12.6145 12.5742 12.0242 12.5791C11.3758 12.5791 10.979 12.5259 10.4661 12.3759L10.1129 12.2742V10.3968V8.5194L10.2968 8.49037C10.9645 8.38392 11.4145 8.03553 11.5645 7.50327C11.5935 7.4065 11.6129 6.68553 11.6129 5.83876V4.35327H11.25H10.8871V4.90973V5.46618H10.5H10.1129V4.90973V4.35327H9.75H9.3871V4.90973V5.46618H9H8.6129V4.90973V4.35327H8.25H7.8871V5.89198V7.43553L8.0371 7.73553C8.26452 8.18553 8.57903 8.38876 9.20807 8.49037L9.3871 8.5194V10.2081C9.3871 11.5291 9.37258 11.9017 9.32903 11.9017C9.19355 11.9017 8.41935 11.3259 8.02742 10.9339C7.32581 10.2371 6.8129 9.3565 6.55161 8.39359C6.42581 7.9436 6.41613 7.84198 6.41613 6.96618C6.41613 6.09037 6.42581 5.98876 6.54677 5.53876C7.07419 3.58876 8.62742 2.04037 10.5823 1.50811C11.0177 1.39198 11.129 1.38231 12 1.38231C12.871 1.38231 12.9823 1.39198 13.4177 1.51295C13.7806 1.60973 14.6226 1.96779 14.9516 2.16134C14.9806 2.18069 15.3387 1.61456 15.3387 1.55166C15.3387 1.47908 14.5113 1.07747 14.0516 0.922628C13.8145 0.845209 13.4468 0.743597 13.2339 0.700048C12.7742 0.603273 11.6274 0.564564 11.1581 0.632305ZM14.5548 4.80811C15.0484 5.06456 15.4355 6.10005 15.3726 6.96618C15.3048 7.83714 14.9516 8.23876 14.2597 8.23392C13.9065 8.22908 13.7177 8.17101 13.5339 7.99198C12.9532 7.44521 13.0065 5.92101 13.6306 5.08876C13.8726 4.76456 14.2548 4.65327 14.5548 4.80811ZM10.8871 6.70972C10.8871 7.08231 10.8677 7.21779 10.7903 7.38231C10.6403 7.68714 10.4903 7.74037 9.74032 7.74037C8.7629 7.74037 8.6129 7.60489 8.6129 6.73876V6.24037H9.75H10.8871V6.70972ZM5.56452 6.98069C5.56452 6.99037 5.43387 8.17101 5.27419 9.60327C5.11452 11.0355 4.98387 12.2162 4.98387 12.2259C4.98387 12.2307 4.13226 12.2404 3.09194 12.2404C1.31613 12.2404 1.20484 12.2355 1.22903 12.1533C1.24355 12.1097 1.53871 10.9242 1.89194 9.51618L2.52581 6.96618H4.04516C4.88226 6.96618 5.56452 6.97585 5.56452 6.98069ZM21.4839 7.07263C21.5081 7.13553 21.8032 8.2823 22.1371 9.62747C22.471 10.9726 22.7565 12.1097 22.771 12.1533C22.7952 12.2355 22.6839 12.2404 20.9081 12.2404H19.0161L18.9968 12.1291C18.9726 12.0323 18.4355 7.08714 18.4355 7.00005C18.4355 6.98069 19.1129 6.96618 19.9355 6.96618H21.4355L21.4839 7.07263ZM6.73548 10.5565C7.29677 11.3839 8.4 12.3468 9.18871 12.7L9.40161 12.792L9.37258 13.2807C9.33387 14.0259 9.10161 14.5194 8.6129 14.8775C8.23548 15.1533 7.89194 15.2549 7.39839 15.2307C7.06452 15.2162 6.92903 15.1823 6.69677 15.071C6.34355 14.8968 5.96129 14.5242 5.81129 14.2C5.67097 13.9 5.58871 13.4355 5.63226 13.1936L5.66613 13.0146H6.58065H7.5V12.6275V12.2404H6.62903C5.79677 12.2404 5.75806 12.2355 5.75806 12.1436C5.75806 12.0952 5.82581 11.4613 5.90323 10.7404C5.98548 10.0194 6.04839 9.40489 6.04839 9.37101C6.04839 9.33714 6.13548 9.49198 6.24194 9.70972C6.34355 9.92747 6.56613 10.3097 6.73548 10.5565ZM18.0968 10.8565C18.179 11.5968 18.2371 12.2113 18.2274 12.221C18.2177 12.2355 17.6274 12.2355 16.9113 12.2307L15.6194 12.2162L15.8468 12.0517C16.5919 11.5146 17.3758 10.5517 17.7919 9.64682C17.8645 9.48714 17.9274 9.39521 17.9371 9.43392C17.9419 9.47263 18.0145 10.1113 18.0968 10.8565ZM4.82903 13.4404C4.81936 13.7984 4.79032 13.9097 4.65968 14.1807C4.47097 14.5678 4.12258 14.9065 3.73548 15.0855C3.49355 15.2017 3.40161 15.2162 2.97581 15.2162C2.55 15.2162 2.45806 15.2017 2.21613 15.0855C1.82903 14.9065 1.48065 14.5678 1.29677 14.1855C1.16613 13.9242 1.1371 13.8033 1.12258 13.4452L1.10323 13.0146H2.97581H4.84839L4.82903 13.4404ZM18.3581 13.271C18.45 13.9775 17.9855 14.7517 17.2742 15.0904C17.0371 15.2017 16.95 15.2162 16.5 15.2162C16.0355 15.2162 15.9677 15.2017 15.7065 15.0759C15.0242 14.7371 14.6129 14.0404 14.6129 13.2275V13.0146H16.471H18.329L18.3581 13.271ZM22.8774 13.4452C22.8629 13.8033 22.8339 13.9242 22.7032 14.1855C22.5194 14.5678 22.171 14.9065 21.7839 15.0855C21.5419 15.2017 21.45 15.2162 21.0242 15.2162C20.5839 15.2162 20.5113 15.2017 20.2258 15.0662C19.5194 14.7275 19.1226 14.0355 19.1129 13.1452V13.0146H21.0048H22.8968L22.8774 13.4452ZM10.7419 13.2226C11.3952 13.3678 12.6048 13.3678 13.2581 13.2226C13.5097 13.1646 13.7613 13.1065 13.8097 13.0823C13.8968 13.0484 13.9016 13.0678 13.8726 13.4065C13.8097 14.2775 13.3258 14.9162 12.5419 15.1678C12.1645 15.2936 11.5645 15.25 11.2161 15.0807C10.5629 14.7613 10.1758 14.1807 10.1274 13.45C10.0984 13.0678 10.1032 13.0484 10.1903 13.0823C10.2387 13.1065 10.4903 13.1646 10.7419 13.2226ZM5.37097 14.9259C5.52581 15.1775 5.97097 15.55 6.31936 15.7242C6.65323 15.8888 7.16129 16.0146 7.5 16.0146C8.27903 16.0146 9.14032 15.5694 9.63387 14.9113L9.75484 14.7565L9.93387 14.9984C10.379 15.5984 11.2258 16.0146 12 16.0146C12.779 16.0146 13.6403 15.5694 14.1387 14.9113L14.2597 14.7468L14.4435 14.9984C14.8742 15.5839 15.7452 16.0146 16.5 16.0146C16.8387 16.0146 17.3468 15.8888 17.6806 15.7242C18.029 15.55 18.4742 15.1775 18.629 14.9307L18.7306 14.7662L19.1274 15.1629C19.6694 15.7097 20.1484 15.942 20.8548 16C21.1935 16.0242 21.721 15.9371 22.079 15.7968C22.1516 15.7629 22.1613 15.8017 22.1613 16.2275V16.692H12H1.83871V16.2323C1.83871 15.9807 1.84839 15.7726 1.85323 15.7726C1.8629 15.7726 1.99839 15.821 2.15806 15.8742C2.37581 15.9565 2.55968 15.9807 2.95161 15.9855C3.54677 15.9904 3.92419 15.8839 4.38871 15.5839C4.65968 15.4097 5.17742 14.892 5.17742 14.8C5.17742 14.7033 5.26935 14.7662 5.37097 14.9259ZM8.6129 19.4984V21.5791H5.22581H1.83871V19.5323C1.83871 18.4049 1.85323 17.4662 1.87258 17.4517C1.8871 17.4323 3.41129 17.4178 5.25968 17.4178H8.6129V19.4984ZM14.6129 20.9984V24.5791H12H9.3871V20.9984V17.4178H12H14.6129V20.9984ZM8.6129 23.4662V24.5791H5.22581H1.83871V23.4662V22.3533H5.22581H8.6129V23.4662ZM22.1613 23.4662V24.5791H18.7742H15.3871V23.4662V22.3533H18.7742H22.1613V23.4662Z" fill="#E4F2F6"/>
<path d="M3.09668 18.6759V19.063H3.45958H3.82249V18.6759V18.2888H3.45958H3.09668V18.6759Z" fill="#E4F2F6"/>
<path d="M4.59668 18.6759V19.063H4.95958H5.32249V18.6759V18.2888H4.95958H4.59668V18.6759Z" fill="#E4F2F6"/>
<path d="M6.09668 18.6759V19.063H6.45958H6.82249V18.6759V18.2888H6.45958H6.09668V18.6759Z" fill="#E4F2F6"/>
<path d="M10.8867 20.8291V21.5791H11.2496H11.6125V20.8291V20.0791H11.2496H10.8867V20.8291Z" fill="#E4F2F6"/>
<path d="M12.3867 20.8291V21.5791H12.7496H13.1125V20.8291V20.0791H12.7496H12.3867V20.8291Z" fill="#E4F2F6"/>
</svg>
