<svg width="24" height="26" viewBox="0 0 24 26" fill="none" xmlns="http://www.w3.org/2000/svg">
<path d="M19.215 1.03603C18.9695 1.11619 18.5486 1.54709 18.4735 1.80262C18.4284 1.95795 18.4134 3.20555 18.4134 6.89824V11.7834L18.238 11.8135C18.0225 11.8536 17.767 12.064 17.6818 12.2795C17.6267 12.4047 17.6117 12.8456 17.6117 14.3237V16.2026L9.38455 16.2126L1.1524 16.2277L0.901879 16.3529C0.581211 16.5083 0.280585 16.8089 0.125261 17.1296L0 17.3801V19.8101V22.2402L0.125261 22.4907C0.405846 23.0569 0.886848 23.3625 1.56827 23.4076L1.97912 23.4327V24.1041C1.97912 24.7504 1.98413 24.7805 2.10438 24.8957L2.22463 25.021H3.78288H5.34113L5.46138 24.8957C5.58163 24.7805 5.58664 24.7504 5.58664 24.0941V23.4177H12H18.4134V24.0941C18.4134 24.7504 18.4184 24.7805 18.5386 24.8957L18.6589 25.021H20.2171H21.7754L21.8956 24.8957C22.0159 24.7805 22.0209 24.7504 22.0209 24.1041V23.4327L22.4367 23.4076C23.1132 23.3625 23.5942 23.0569 23.8747 22.4907L24 22.2402V19.8101V17.3801L23.8747 17.1296C23.7144 16.8089 23.4138 16.5083 23.0981 16.3579C22.8877 16.2527 22.7474 16.2327 22.2363 16.2126L21.6251 16.1926L21.61 14.2486L21.595 12.3045L21.4397 12.1091C21.3344 11.9788 21.2142 11.8936 21.0539 11.8435L20.8184 11.7684V6.88822C20.8184 3.26567 20.8033 1.95795 20.7582 1.81264C20.6731 1.51703 20.3173 1.14626 20.0317 1.05106C19.7662 0.960871 19.4706 0.95586 19.215 1.03603ZM19.8914 1.89782L20.0167 2.01807V6.90826V11.7934H19.6159H19.215V6.90826V2.01807L19.3403 1.89782C19.4154 1.81766 19.5207 1.77256 19.6159 1.77256C19.7111 1.77256 19.8163 1.81766 19.8914 1.89782ZM20.8184 14.3989V16.2026H19.6159H18.4134V14.3989V12.5951H19.6159H20.8184V14.3989ZM22.8526 17.1346C22.9278 17.1897 23.038 17.2999 23.0931 17.3751C23.1983 17.5103 23.1983 17.5655 23.1983 19.8101C23.1983 22.0548 23.1983 22.1099 23.0931 22.2452C23.038 22.3204 22.9278 22.4306 22.8526 22.4857L22.7173 22.5909H12H1.28267L1.14739 22.4857C1.07223 22.4306 0.962004 22.3204 0.906889 22.2452C0.806681 22.1099 0.80167 22.0398 0.786639 19.9454C0.776618 18.7529 0.786639 17.7108 0.80167 17.6206C0.836743 17.4202 1.04718 17.1646 1.25261 17.0744C1.37787 17.0193 3.27683 17.0093 12.0601 17.0193L22.7173 17.0293L22.8526 17.1346ZM4.78497 23.8185V24.2193H3.78288H2.78079V23.8185V23.4177H3.78288H4.78497V23.8185ZM21.2192 23.8185V24.2193H20.2171H19.215V23.8185V23.4177H20.2171H21.2192V23.8185Z" fill="#E4F2F6"/>
<path d="M3.18146 17.8711C2.93595 17.9513 2.51507 18.3822 2.43992 18.6377C2.29962 19.1087 2.39983 19.4845 2.75557 19.8352C3.26163 20.3463 3.90296 20.3463 4.40902 19.8352C4.92008 19.3292 4.92008 18.6878 4.40902 18.1818C4.05829 17.826 3.64743 17.7258 3.18146 17.8711ZM3.85787 18.7329C3.93804 18.8081 3.98313 18.9133 3.98313 19.0085C3.98313 19.1037 3.93804 19.2089 3.85787 19.2841C3.78271 19.3642 3.67749 19.4093 3.5823 19.4093C3.4871 19.4093 3.38188 19.3642 3.30672 19.2841C3.22655 19.2089 3.18146 19.1037 3.18146 19.0085C3.18146 18.9133 3.22655 18.8081 3.30672 18.7329C3.38188 18.6527 3.4871 18.6076 3.5823 18.6076C3.67749 18.6076 3.78271 18.6527 3.85787 18.7329Z" fill="#E4F2F6"/>
<path d="M6.38849 17.871C6.14298 17.9511 5.7221 18.382 5.64695 18.6376C5.50666 19.1085 5.60686 19.4843 5.96261 19.8351C6.47367 20.3511 7.18014 20.3411 7.65613 19.81C8.11208 19.3039 8.10206 18.6325 7.62607 18.1666C7.29037 17.8409 6.83442 17.7307 6.38849 17.871ZM7.0649 18.7328C7.31542 18.9783 7.14006 19.4092 6.78933 19.4092C6.69413 19.4092 6.58891 19.3641 6.51375 19.2839C6.43359 19.2088 6.38849 19.1035 6.38849 19.0083C6.38849 18.9131 6.43359 18.8079 6.51375 18.7328C6.58891 18.6526 6.69413 18.6075 6.78933 18.6075C6.88453 18.6075 6.98975 18.6526 7.0649 18.7328Z" fill="#E4F2F6"/>
<path d="M9.59455 17.871C9.34904 17.9511 8.92816 18.382 8.853 18.6376C8.71271 19.1085 8.81292 19.4843 9.16866 19.8351C9.67972 20.3511 10.3862 20.3411 10.8622 19.81C11.3131 19.309 11.3131 18.7077 10.8622 18.2067C10.5365 17.8459 10.0705 17.7206 9.59455 17.871ZM10.271 18.7328C10.5215 18.9783 10.3461 19.4092 9.99538 19.4092C9.90018 19.4092 9.79496 19.3641 9.71981 19.2839C9.63964 19.2088 9.59455 19.1035 9.59455 19.0083C9.59455 18.9131 9.63964 18.8079 9.71981 18.7328C9.79496 18.6526 9.90018 18.6075 9.99538 18.6075C10.0906 18.6075 10.1958 18.6526 10.271 18.7328Z" fill="#E4F2F6"/>
<path d="M12.1456 18.703C12.0555 18.7731 12.0254 18.8483 12.0254 19.0086C12.0254 19.1689 12.0555 19.2441 12.1456 19.3142C12.2559 19.4044 12.3711 19.4094 14.2049 19.4094C16.0388 19.4094 16.154 19.4044 16.2642 19.3142C16.4296 19.1789 16.4296 18.8382 16.2642 18.703C16.154 18.6128 16.0388 18.6078 14.2049 18.6078C12.3711 18.6078 12.2559 18.6128 12.1456 18.703Z" fill="#E4F2F6"/>
<path d="M17.5568 18.703C17.4666 18.7731 17.4365 18.8483 17.4365 19.0086C17.4365 19.3593 17.5468 19.4094 18.3134 19.4094C19.0799 19.4094 19.1902 19.3593 19.1902 19.0086C19.1902 18.6579 19.0799 18.6078 18.3134 18.6078C17.7622 18.6078 17.657 18.6228 17.5568 18.703Z" fill="#E4F2F6"/>
<path d="M7.56535 5.53537C5.92694 5.62556 4.27851 6.14665 2.86556 7.01846C2.24427 7.40427 1.67308 7.84017 1.19208 8.30614C0.731115 8.74706 0.681011 8.87232 0.891449 9.11784C1.09187 9.34832 1.26222 9.30823 1.66306 8.93746C3.05095 7.6598 4.58915 6.86314 6.35283 6.50239C7.49521 6.2669 8.95825 6.2669 10.0806 6.49738C11.8643 6.86815 13.3775 7.65479 14.7704 8.93746C15.1712 9.30823 15.3416 9.34832 15.542 9.11784C15.7524 8.87232 15.7023 8.74706 15.2464 8.30614C13.2171 6.36209 10.4864 5.38005 7.56535 5.53537Z" fill="#E4F2F6"/>
<path d="M7.07512 8.11078C5.45174 8.37634 4.01374 9.0778 2.84631 10.1751C2.48055 10.5158 2.43546 10.6861 2.66093 10.9116C2.88139 11.1321 3.02669 11.092 3.46761 10.6861C4.38452 9.84941 5.56698 9.23813 6.81458 8.96256C7.35571 8.84231 8.66844 8.81225 9.24464 8.90744C10.6626 9.13792 11.9302 9.74419 12.9674 10.6861C13.253 10.9467 13.3933 11.0419 13.4935 11.0419C13.749 11.0419 13.9595 10.7413 13.8793 10.4958C13.8643 10.4356 13.6538 10.2202 13.4133 10.0097C12.3461 9.08281 11.1336 8.47655 9.77074 8.18594C9.10936 8.04565 7.71646 8.00557 7.07512 8.11078Z" fill="#E4F2F6"/>
<path d="M7.46577 10.5959C6.41859 10.7463 5.29625 11.2924 4.57475 11.9939C4.25408 12.3045 4.214 12.4448 4.38435 12.6602C4.5046 12.8106 4.70001 12.8707 4.83529 12.7955C4.8904 12.7655 5.07078 12.6202 5.23612 12.4749C5.82736 11.9438 6.72422 11.5279 7.54093 11.3976C8.8236 11.1922 10.3017 11.6381 11.2537 12.52C11.3789 12.6352 11.5292 12.7605 11.5894 12.7905C11.7347 12.8657 11.9301 12.8106 12.0503 12.6602C12.2207 12.4448 12.1806 12.3045 11.8599 11.9939C10.7576 10.9166 9.03404 10.3705 7.46577 10.5959Z" fill="#E4F2F6"/>
<path d="M7.866 13.076C7.30984 13.1612 6.73364 13.4268 6.34783 13.7725C6.04721 14.043 5.9971 14.1733 6.10733 14.3888C6.25263 14.6693 6.50817 14.6744 6.82884 14.4038C7.6756 13.6923 8.74783 13.6923 9.60462 14.4038C9.92529 14.6744 10.1808 14.6693 10.3261 14.3888C10.4364 14.1733 10.3862 14.043 10.0856 13.7725C9.79501 13.5119 9.4042 13.2965 9.00337 13.1762C8.71777 13.0961 8.11151 13.041 7.866 13.076Z" fill="#E4F2F6"/>
</svg>
